<?xml version="1.0" encoding="utf-8"?>
<!-- Generator: Adobe Illustrator 19.2.1, SVG Export Plug-In . SVG Version: 6.00 Build 0)  -->
<svg version="1.1" id="Layer_1" xmlns="http://www.w3.org/2000/svg" xmlns:xlink="http://www.w3.org/1999/xlink" x="0px" y="0px"
	 width="77.7px" height="133.8px" viewBox="0 0 77.7 133.8" style="enable-background:new 0 0 77.7 133.8;" xml:space="preserve">
<image style="display:none;overflow:visible;" width="3264" height="2448" xlink:href="../../../Downloads/IMG_3555.JPG"  transform="matrix(1.556284e-09 0.1305 -0.1305 1.556284e-09 188.9861 -214.9774)">
</image>
<path d="M76.8,100.8c0,0-7,3.5-20.8,0.8s-25-6.9-27.5-11.9S54,62,49.8,50S33,41,27.3,52.3s-7.5,18.5-7.5,18.5L17.1,1.4
	c0-0.6-2-1.7-2.4-1.3C12.7,2,10.5,6.9,7,8c-3.2,1.1-6.2,3-7,3.8S13.5,129.3,17,133s2.5-8.2,2.5-8.2s-2.8-26.2-2-29.8
	s0.8-4.2,7.5,0.8s25,13.7,42.5,11C81.9,104.5,76.8,100.8,76.8,100.8z M20.7,84.6c0,0,8.5-31.4,13.2-36.1c4.5-4.4,14.3-3.5,12.5,7.5
	S20.7,84.6,20.7,84.6z"/>
</svg>
